<?xml version="1.0" encoding="utf-8"?>
<!-- Generator: Adobe Illustrator 18.1.1, SVG Export Plug-In . SVG Version: 6.00 Build 0)  -->
<svg version="1.1" id="Layer_1" xmlns="http://www.w3.org/2000/svg" xmlns:xlink="http://www.w3.org/1999/xlink" x="0px" y="0px"
	 viewBox="0 0 70 70" enable-background="new 0 0 70 70" xml:space="preserve">
<g id="Layer_2">
	<rect fill="#EF3F3F" width="70" height="70"/>
</g>
<g>
	<path fill="#FFFFFF" d="M28.1,28.1c-0.1,0.1-0.3,0.2-0.7,0.2h-1.2c-0.4,0-0.6-0.1-0.7-0.2c-0.1-0.1-0.2-0.3-0.2-0.7v-2.3h-2.7v2.7
		c0,1.7,0.9,2.6,2.8,2.6h2.9c1.9,0,2.8-0.9,2.8-2.6v-5.3c0-1.7-0.9-2.6-2.7-2.6h-2.2c-0.4,0-0.6-0.1-0.7-0.2
		c-0.1-0.1-0.2-0.3-0.2-0.7v-4.1c0-0.4,0.1-0.6,0.2-0.7c0.1-0.1,0.4-0.2,0.7-0.2h1.2c0.4,0,0.6,0.1,0.7,0.2c0.1,0.1,0.2,0.3,0.2,0.7
		v2.3h2.7v-2.7c0-1.7-0.9-2.6-2.8-2.6h-2.9c-1.8,0-2.8,0.9-2.8,2.6v4.9c0,1.8,0.9,2.6,2.7,2.6h2.2c0.4,0,0.6,0.1,0.7,0.2
		c0.1,0.1,0.2,0.3,0.2,0.7v4.5C28.2,27.8,28.2,28,28.1,28.1z"/>
	<path fill="#FFFFFF" d="M42.1,14.2l1.7,9.8h-3.2L42.1,14.2z M47.6,30.5L44,11.9h-3.9l-3.3,18.6h2.7l0.7-4.3h3.9l0.7,4.3H47.6z"/>
	<path fill="#FFFFFF" d="M31.1,36.8c0-1.7-0.9-2.6-2.8-2.6h-3.2c-1.8,0-2.8,0.9-2.8,2.6v13.4c0,1.8,0.9,2.6,2.8,2.6h3.2
		c1.8,0,2.8-0.9,2.8-2.6v-7h-4.2v2.1h1.5v4.5c0,0.4-0.1,0.6-0.2,0.7c-0.1,0.1-0.4,0.2-0.7,0.2H26c-0.4,0-0.6-0.1-0.7-0.2
		c-0.1-0.1-0.2-0.3-0.2-0.7V37.1c0-0.4,0.1-0.6,0.2-0.7c0.1-0.1,0.4-0.2,0.7-0.2h1.5c0.4,0,0.6,0.1,0.7,0.2c0.1,0.1,0.2,0.3,0.2,0.7
		v2.5h2.7V36.8z"/>
	<path fill="#FFFFFF" d="M41,44.2h4.3v-2.2H41v-5.7h5.2v-2.2h-7.9v18.6h8.1v-2.2H41V44.2z"/>
	<g>
		<path fill-rule="evenodd" clip-rule="evenodd" fill="#FFFFFF" d="M22.6,55.7h23.8v2.4H22.6V55.7z"/>
	</g>
</g>
</svg>
